<?xml version="1.0" standalone="no"?>
<!DOCTYPE svg PUBLIC "-//W3C//DTD SVG 20010904//EN"
 "http://www.w3.org/TR/2001/REC-SVG-20010904/DTD/svg10.dtd">
<svg version="1.0" xmlns="http://www.w3.org/2000/svg"
 width="48.000000pt" height="48.000000pt" viewBox="0 0 48.000000 48.000000"
 preserveAspectRatio="xMidYMid meet">

<g transform="translate(0.000000,48.000000) scale(0.100000,-0.100000)"
fill="#000000" stroke="none">
<path d="M189 405 c-34 -22 -49 -43 -49 -66 0 -17 19 -9 25 10 5 16 15 19 73
18 59 -2 68 -5 78 -25 17 -34 29 -8 14 29 -7 16 -17 29 -22 29 -6 0 -8 7 -4
15 10 26 -73 19 -115 -10z"/>
<path d="M154 155 c-39 -16 -76 -62 -72 -89 3 -20 9 -21 158 -21 150 0 155 1
158 21 4 27 -40 79 -77 92 -28 10 -29 9 -35 -23 -4 -19 -15 -44 -25 -56 -16
-20 -21 -21 -35 -10 -9 8 -22 33 -29 56 l-12 43 -31 -13z"/>
<path d="M237 133 c-11 -10 -8 -63 3 -63 6 0 10 16 10 35 0 36 -2 40 -13 28z"/>
</g>
</svg>
